# xmcd CD database file generated by LOLA_Freedb v0.9beta0
# 
# Track frame offsets:
#      150
#      17912
#      34912
#      50734
#      64828
#      80830
#      97230
#      113852
#      129448
#      148569
#      163671
#      182393
#      199130
#      217394
#      234314
#      251654
#      259592
# 
# Disc length: 3676 seconds
# 
# Revision: 0 
# Processed by: cddbd v1.5.2PL0 Copyright (c) Steve Scherf et al.
# Submitted via: LOLA_Freedb v0.9beta0
# 
DISCID=010e5a11
DTITLE=Debbie Clarke - Manhattanhenge (deluxe edition)
DYEAR=2012
DGENRE=
TTITLE0=Debbie Clarke - Bird on the wire
TTITLE1=Debbie Clarke - Lay down
TTITLE2=Debbie Clarke - Love me somebody
TTITLE3=Debbie Clarke - Brave little bird
TTITLE4=Debbie Clarke - I believe in love
TTITLE5=Debbie Clarke - I pitty the poor immigrant
TTITLE6=Debbie Clarke - Let the bells ring out
TTITLE7=Debbie Clarke - Dear landlord
TTITLE8=Debbie Clarke - Saint of me
TTITLE9=Debbie Clarke - Society's child
TTITLE10=Debbie Clarke - Nothing ever happens
TTITLE11=Debbie Clarke - To me you are a work of art
TTITLE12=Debbie Clarke - The music boat
TTITLE13=Debbie Clarke - Love keeps growing
TTITLE14=Debbie Clarke - Streets of London
TTITLE15=Debbie Clarke - Song for the asking
TTITLE16=Debbie Clarke - Leaves of grass
EXTD=
EXTT0=
EXTT1=
EXTT2=
EXTT3=
EXTT4=
EXTT5=
EXTT6=
EXTT7=
EXTT8=
EXTT9=
EXTT10=
EXTT11=
EXTT12=
EXTT13=
EXTT14=
EXTT15=
EXTT16=
PLAYORDER=
